<svg xmlns="http://www.w3.org/2000/svg" viewBox="0 0 1600 900">
  <defs>
    <linearGradient id="bg" x1="0" y1="0" x2="1" y2="1">
      <stop offset="0%" stop-color="#071217" />
      <stop offset="100%" stop-color="#0f1c2b" />
    </linearGradient>
    <linearGradient id="glow" x1="0" y1="0" x2="1" y2="1">
      <stop offset="0%" stop-color="#0ed2ff" stop-opacity="0.8" />
      <stop offset="100%" stop-color="#ffc94d" stop-opacity="0.8" />
    </linearGradient>
    <filter id="blur" x="-20%" y="-20%" width="140%" height="140%">
      <feGaussianBlur stdDeviation="18" />
    </filter>
  </defs>
  <rect width="1600" height="900" fill="url(#bg)" />
  <g opacity="0.12">
    <path d="M0 550 L1600 240" fill="none" stroke="#0af6ff" stroke-width="1" stroke-opacity="0.7" />
    <path d="M0 650 L1600 330" fill="none" stroke="#fcbf49" stroke-width="1" stroke-opacity="0.7" />
    <path d="M0 750 L1600 420" fill="none" stroke="#6d5dfc" stroke-width="1" stroke-opacity="0.7" />
  </g>
  <rect x="120" y="140" width="1360" height="620" rx="32" fill="#081422" stroke="#18b5ff" stroke-width="3" opacity="0.25" />
  <rect x="140" y="160" width="1320" height="580" rx="24" fill="#0c1b2c" />
  <g filter="url(#blur)">
    <ellipse cx="400" cy="400" rx="220" ry="160" fill="url(#glow)" />
    <ellipse cx="1060" cy="360" rx="180" ry="120" fill="#0df9ff" opacity="0.25" />
  </g>
  <g opacity="0.75" fill="#0af4ff">
    <path d="M220 280h900v4H220z" />
    <path d="M220 330h900v4H220z" />
    <path d="M220 380h900v4H220z" />
    <path d="M220 430h900v4H220z" />
  </g>
  <g transform="translate(360,320)">
    <rect x="0" y="0" width="320" height="240" rx="30" fill="#08a6ff" opacity="0.12" />
    <rect x="16" y="16" width="288" height="208" rx="20" fill="#091d2d" stroke="#04f4ff" stroke-width="2" />
    <path d="M40 80h240M40 120h240M40 160h240" fill="none" stroke="#0cf" stroke-width="6" stroke-linecap="round" opacity="0.85" />
    <circle cx="180" cy="140" r="34" fill="#0af3ff" opacity="0.22" />
    <circle cx="180" cy="140" r="16" fill="#0cf" />
  </g>
  <g transform="translate(760,260)">
    <rect x="0" y="0" width="280" height="200" rx="24" fill="#0b2435" stroke="#2c8fff" stroke-width="3" />
    <path d="M30 60h220M30 110h120" fill="none" stroke="#55d7ff" stroke-width="5" stroke-linecap="round" />
    <circle cx="90" cy="150" r="24" fill="#0af4ff" opacity="0.3" />
    <path d="M45 150h90" fill="none" stroke="#0af4ff" stroke-width="4" stroke-linecap="round" />
  </g>
  <text x="180" y="120" font-family="Inter, sans-serif" font-size="72" font-weight="800" fill="#ffffff" letter-spacing="0.06em">TATA STEEL</text>
  <text x="180" y="190" font-family="Inter, sans-serif" font-size="32" fill="#a8d8ff" letter-spacing="0.08em">AI Powered Steel Surface Analysis</text>
  <text x="180" y="260" font-family="Inter, sans-serif" font-size="20" fill="#82caff" letter-spacing="0.08em">Automated defect detection · Quality monitoring · Vision AI</text>
  <g transform="translate(980,500)">
    <rect x="0" y="0" width="420" height="240" rx="24" fill="#07141d" stroke="#0faeff" stroke-width="2" opacity="0.92" />
    <path d="M30 60h360M30 110h260M30 160h180" fill="none" stroke="#7fe4ff" stroke-width="6" stroke-linecap="round" opacity="0.85" />
    <circle cx="320" cy="90" r="12" fill="#0afcff" />
    <circle cx="260" cy="138" r="12" fill="#0afcff" />
  </g>
  <circle cx="760" cy="500" r="68" fill="none" stroke="#4bd8ff" stroke-width="6" opacity="0.9" />
  <path d="M720 500c0-24 20-44 44-44s44 20 44 44-20 44-44 44-44-20-44-44Z" fill="#0bf2ff" opacity="0.2" />
  <path d="M740 490l48 20M740 510l48-20" stroke="#0bf2ff" stroke-width="4" stroke-linecap="round" opacity="0.8" />
</svg>
